<svg t="1768898849541" class="icon" viewBox="0 0 1152 1024" version="1.1" xmlns="http://www.w3.org/2000/svg" p-id="5887" width="200" height="200"><path d="M1088 128l-1024 0c-35.2 0-64 28.8-64 64l0 640c0 35.2 28.8 64 64 64l1024 0c35.2 0 64-28.8 64-64l0-640c0-35.2-28.8-64-64-64zM640 256l128 0 0 128-128 0 0-128zM832 448l0 128-128 0 0-128 128 0zM448 256l128 0 0 128-128 0 0-128zM640 448l0 128-128 0 0-128 128 0zM256 256l128 0 0 128-128 0 0-128zM448 448l0 128-128 0 0-128 128 0zM128 256l64 0 0 128-64 0 0-128zM128 448l128 0 0 128-128 0 0-128zM192 768l-64 0 0-128 64 0 0 128zM768 768l-512 0 0-128 512 0 0 128zM1024 768l-192 0 0-128 192 0 0 128zM1024 576l-128 0 0-128 128 0 0 128zM1024 384l-192 0 0-128 192 0 0 128z" p-id="5888" fill="#e6e6e6"></path></svg>